# xmcd
#
# Track frame offsets: 
#        182
#        11135
#        21667
#        32155
#        42680
#        60185
#        72237
#        97892
#        121575
#        134075
#        145297
#        154412
#        165752
#        177425
#        189475
#        200772
#        217442
#        235440
#        246497
#        261962
#        281582
#        292562
#        304542
#        318390
#        330045
#
# Disc length: 4558 seconds
#
# Revision: 9
# Processed by: cddbd v1.5.2PL0 Copyright (c) Steve Scherf et al.
# Submitted via: ExactAudioCopy v0.99pb5
#
DISCID=7711cc19
DTITLE=The Yardbirds - Ultimate! [CD1]
DYEAR=2001
DGENRE=Rock
TTITLE0=Boom Boom
TTITLE1=Honey In Your Hips
TTITLE2=A Certain Girl
TTITLE3=I Wish You Would
TTITLE4=Too Much Monkey Business (Live)
TTITLE5=I Got Love If You Want It (Live)
TTITLE6=Smokestack Lightning (Live)
TTITLE7=Here 'Tis (Live)
TTITLE8=Good Morning Little Schoolgirl
TTITLE9=Got To Hurry
TTITLE10=I Ain't Got You
TTITLE11=For Your Love
TTITLE12=I'm Not Talking
TTITLE13=Steeled Blues
TTITLE14=Heart Full Of Soul
TTITLE15=I Ain't Done Wrong
TTITLE16=You're A Better Man Than I
TTITLE17=Shapes Of Things
TTITLE18=The Train Kept A-Rollin'
TTITLE19=New York City Blues
TTITLE20=Evil Hearted You
TTITLE21=I'm A Man
TTITLE22=Still I'm Sad
TTITLE23=Questa Volta
TTITLE24=Pafff... Bum
EXTD=YEAR: 2001
EXTT0=
EXTT1=
EXTT2=
EXTT3=
EXTT4=
EXTT5=
EXTT6=
EXTT7=
EXTT8=
EXTT9=
EXTT10=
EXTT11=
EXTT12=
EXTT13=
EXTT14=
EXTT15=
EXTT16=
EXTT17=
EXTT18=
EXTT19=
EXTT20=
EXTT21=
EXTT22=
EXTT23=
EXTT24=
PLAYORDER=
